<svg width="131" height="57" viewBox="0 0 131 57" fill="none" xmlns="http://www.w3.org/2000/svg">
<path d="M6.41551 26.3798C4.81551 26.3798 3.75551 25.8598 3.23551 24.8198C2.71551 23.7398 2.45551 22.5998 2.45551 21.3998C2.45551 20.9598 2.47551 20.4998 2.51551 20.0198C2.59551 19.4998 2.69551 18.9198 2.81551 18.2798L5.81551 17.4398C5.69551 18.1198 5.59551 18.7598 5.51551 19.3598C5.47551 19.9198 5.45551 20.4198 5.45551 20.8598C5.45551 21.6198 5.57551 22.1798 5.81551 22.5398C6.05551 22.8998 6.43551 23.0798 6.95551 23.0798C7.55551 23.0798 8.05551 22.7798 8.45551 22.1798C8.85551 21.5398 9.07551 20.2798 9.11551 18.3998V16.5998L11.9955 15.5198V19.1798C11.9955 19.7398 12.0955 20.2398 12.2955 20.6798C12.5355 21.0798 13.0155 21.2798 13.7355 21.2798C14.4555 21.2798 14.9355 21.0598 15.1755 20.6198C15.4155 20.1798 15.5355 19.6198 15.5355 18.9398C15.5355 18.2598 15.4555 17.5798 15.2955 16.8998C15.1355 16.1798 14.9155 15.4798 14.6355 14.7998L17.3355 13.9598C17.7355 14.7198 18.0555 15.5998 18.2955 16.5998C18.5755 17.5598 18.7155 18.4398 18.7155 19.2398C18.7155 20.5598 18.3355 21.7598 17.5755 22.8398C16.8555 23.8798 15.7155 24.3998 14.1555 24.3998C12.9155 24.3998 11.8955 24.0798 11.0955 23.4398C10.3355 22.7598 9.95551 21.9598 9.95551 21.0398L11.3355 21.5798C11.3355 22.9398 10.8555 24.0798 9.89551 24.9998C8.97551 25.9198 7.81551 26.3798 6.41551 26.3798ZM42.3602 43.1398L42.9002 38.2198C45.1802 38.2198 46.7802 37.9998 47.7002 37.5598C48.6202 37.1198 49.1402 36.3398 49.2602 35.2198C49.4202 34.0998 49.4602 32.5398 49.3802 30.5398L48.2402 -0.000159025H53.1002L54.3002 29.9998C54.3802 32.1198 54.3002 33.9998 54.0602 35.6398C53.8602 37.2798 53.3402 38.6598 52.5002 39.7798C51.7002 40.8998 50.4802 41.7398 48.8402 42.2998C47.2402 42.8598 45.0802 43.1398 42.3602 43.1398ZM0.000195384 42.8998C0.000195384 41.9398 0.0801954 40.9198 0.240195 39.8398C0.440195 38.7198 0.720195 37.5398 1.0802 36.2998C1.4802 35.0198 1.9602 33.6798 2.5202 32.2798L6.8402 33.9598C6.4402 35.0798 6.0802 36.1398 5.7602 37.1398C5.4802 38.1398 5.2602 39.0798 5.1002 39.9598C4.9802 40.8398 4.9202 41.6798 4.9202 42.4798C4.9202 44.1598 5.2802 45.5798 6.0002 46.7398C6.7602 47.9398 7.8002 48.9198 9.1202 49.6798C10.4402 50.4398 11.9402 50.9998 13.6202 51.3598C15.3402 51.7198 17.1602 51.8998 19.0802 51.8998C21.4002 51.8998 23.5602 51.6998 25.5602 51.2998C27.6002 50.8998 29.3802 50.3198 30.9002 49.5598C32.4602 48.8398 33.6802 47.9998 34.5602 47.0398C35.4402 46.1198 35.8802 45.1198 35.8802 44.0398C35.8802 43.5198 35.6802 43.0398 35.2802 42.5998C34.8802 42.1598 34.2802 41.7398 33.4802 41.3398C32.6802 40.9398 31.7202 40.5598 30.6002 40.1998C29.4802 39.7998 28.2002 39.3998 26.7602 38.9998L27.9002 34.0198C29.9802 34.8198 31.8202 35.4998 33.4202 36.0598C35.0202 36.5798 36.4202 36.9998 37.6202 37.3198C38.8202 37.6398 39.8602 37.8798 40.7402 38.0398C41.6202 38.1598 42.3602 38.2198 42.9602 38.2198C43.8002 38.2198 44.4002 38.4598 44.7602 38.9398C45.1602 39.3798 45.3602 39.9198 45.3602 40.5598C45.3602 41.1998 45.0802 41.7998 44.5202 42.3598C43.9602 42.8798 43.2402 43.1398 42.3602 43.1398C42.1202 43.1398 41.8802 43.1398 41.6402 43.1398C41.4002 43.1398 41.1402 43.1398 40.8602 43.1398C40.6202 43.1398 40.3802 43.1398 40.1402 43.1398C40.2202 43.4998 40.2802 43.7798 40.3202 43.9798C40.3602 44.2198 40.3802 44.5198 40.3802 44.8798C40.3802 46.3598 39.8602 47.7998 38.8202 49.1998C37.8202 50.5998 36.3402 51.8598 34.3802 52.9798C32.4202 54.1398 30.0402 55.0598 27.2402 55.7398C24.4802 56.4198 21.3202 56.7598 17.7602 56.7598C14.6002 56.7598 11.6602 56.2398 8.9402 55.1998C6.2602 54.1998 4.1002 52.6798 2.4602 50.6398C0.820195 48.5998 0.000195384 46.0198 0.000195384 42.8998ZM61.4458 56.6398L60.3658 51.7198C62.7658 51.3998 64.9658 50.9398 66.9658 50.3398C69.0058 49.7798 70.7458 48.9598 72.1858 47.8798C73.6658 46.7998 74.8058 45.3798 75.6058 43.6198C76.4058 41.8598 76.8058 39.6598 76.8058 37.0198C76.8058 34.2998 76.3058 32.0398 75.3058 30.2398C74.3058 28.4398 73.0058 27.5398 71.4058 27.5398C70.5658 27.5398 69.7858 27.8598 69.0658 28.4998C68.3458 29.1398 67.7458 29.9998 67.2658 31.0798C66.8258 32.1598 66.6058 33.3398 66.6058 34.6198C66.6058 35.3398 66.7658 35.9398 67.0858 36.4198C67.4058 36.8598 67.8658 37.2198 68.4658 37.4998C69.1058 37.7398 69.9058 37.9198 70.8658 38.0398C71.8258 38.1598 72.9458 38.2198 74.2258 38.2198H86.8858C87.7258 38.2198 88.3258 38.4598 88.6858 38.9398C89.0858 39.3798 89.2858 39.9198 89.2858 40.5598C89.2858 41.1998 89.0058 41.7998 88.4458 42.3598C87.8858 42.8798 87.1658 43.1398 86.2858 43.1398H71.9458C70.1458 43.1398 68.4658 42.8798 66.9058 42.3598C65.3858 41.8398 64.1458 41.0398 63.1858 39.9598C62.2658 38.8398 61.8058 37.3798 61.8058 35.5798C61.8058 33.8998 62.0658 32.2998 62.5858 30.7798C63.1058 29.2198 63.8058 27.8398 64.6858 26.6398C65.6058 25.3998 66.6658 24.4198 67.8658 23.6998C69.1058 22.9798 70.4458 22.6198 71.8858 22.6198C73.7258 22.6198 75.3658 23.1598 76.8058 24.2398C78.2458 25.3198 79.3858 26.9598 80.2258 29.1598C81.0658 31.3198 81.4858 34.0598 81.4858 37.3798C81.4858 41.0998 80.7258 44.2998 79.2058 46.9798C77.7258 49.6998 75.4858 51.8598 72.4858 53.4598C69.5258 55.0598 65.8458 56.1198 61.4458 56.6398ZM103.061 15.9198L102.521 13.0398C105.241 12.8398 107.441 12.4198 109.121 11.7798C110.841 11.1398 112.081 10.3798 112.841 9.49984C113.641 8.57984 114.041 7.65984 114.041 6.73984C114.041 6.01984 113.881 5.41984 113.561 4.93984C113.241 4.45984 112.761 4.21984 112.121 4.21984C111.521 4.21984 111.021 4.43984 110.621 4.87984C110.221 5.27984 110.021 5.77984 110.021 6.37984C110.021 7.13984 110.341 7.85984 110.981 8.53984C111.621 9.17984 112.421 9.65984 113.381 9.97984L111.521 11.8998C110.241 11.4198 109.141 10.7198 108.221 9.79984C107.341 8.87984 106.901 7.73984 106.901 6.37984C106.901 4.97984 107.381 3.75984 108.341 2.71984C109.341 1.67984 110.641 1.15984 112.241 1.15984C113.841 1.15984 115.041 1.71984 115.841 2.83984C116.681 3.91984 117.101 5.15984 117.101 6.55984C117.101 8.31984 116.521 9.87984 115.361 11.2398C114.201 12.5998 112.561 13.6798 110.441 14.4798C108.361 15.2798 105.901 15.7598 103.061 15.9198ZM86.2666 43.1398L86.8666 38.2198C88.1466 38.2198 89.1866 38.1398 89.9866 37.9798C90.7866 37.7798 91.4466 37.3198 91.9666 36.5998C92.5266 35.8398 93.0466 34.6598 93.5266 33.0598C94.0066 31.4598 94.5666 29.2198 95.2066 26.3398L99.7066 27.5998C99.5466 28.2798 99.3666 29.0598 99.1666 29.9398C98.9666 30.7798 98.7866 31.6598 98.6266 32.5798C98.4666 33.4598 98.3866 34.2798 98.3866 35.0398C98.3866 36.0398 98.7666 36.8198 99.5266 37.3798C100.287 37.9398 101.667 38.2198 103.667 38.2198C104.867 38.2198 105.847 38.1198 106.607 37.9198C107.367 37.7198 107.987 37.2398 108.467 36.4798C108.987 35.7198 109.447 34.4998 109.847 32.8198C110.247 31.1398 110.667 28.8398 111.107 25.9198L115.667 26.7598C115.547 27.4798 115.407 28.3598 115.247 29.3998C115.087 30.4398 114.927 31.4798 114.767 32.5198C114.647 33.5198 114.587 34.3598 114.587 35.0398C114.587 35.5998 114.707 36.1398 114.947 36.6598C115.227 37.1398 115.747 37.5198 116.507 37.7998C117.307 38.0798 118.487 38.2198 120.047 38.2198C121.207 38.2198 122.207 38.0798 123.047 37.7998C123.927 37.5198 124.587 36.9998 125.027 36.2398C125.507 35.4798 125.747 34.4198 125.747 33.0598C125.747 31.5398 125.387 29.6398 124.667 27.3598C123.987 25.0398 123.207 22.7398 122.327 20.4598L127.187 18.6598C127.707 19.9398 128.187 21.3998 128.627 23.0398C129.107 24.6798 129.507 26.2998 129.827 27.8998C130.147 29.4998 130.307 30.8998 130.307 32.0998C130.307 33.9398 130.067 35.5598 129.587 36.9598C129.107 38.3598 128.427 39.5198 127.547 40.4398C126.667 41.3198 125.587 41.9998 124.307 42.4798C123.027 42.9198 121.587 43.1398 119.987 43.1398C118.107 43.1398 116.567 42.9198 115.367 42.4798C114.167 42.0398 113.247 41.3798 112.607 40.4998C111.967 39.5798 111.547 38.4198 111.347 37.0198H113.387C112.627 38.7398 111.827 40.0398 110.987 40.9198C110.147 41.7998 109.107 42.3998 107.867 42.7198C106.627 42.9998 104.987 43.1398 102.947 43.1398C101.947 43.1398 100.867 42.9798 99.7066 42.6598C98.5866 42.3398 97.6066 41.7198 96.7666 40.7998C95.9266 39.8398 95.4266 38.4198 95.2666 36.5398L97.0666 36.1798C96.3866 38.2198 95.5466 39.7398 94.5466 40.7398C93.5866 41.6998 92.4266 42.3398 91.0666 42.6598C89.7066 42.9798 88.1066 43.1398 86.2666 43.1398Z" fill="#E4EDF7"/>
</svg>
