<svg width="139" height="61" viewBox="0 0 139 61" fill="none" xmlns="http://www.w3.org/2000/svg">
<path d="M6.84308 27.8723C5.13641 27.8723 4.00574 27.3176 3.45108 26.2083C2.89641 25.0563 2.61908 23.8403 2.61908 22.5603C2.61908 22.091 2.64041 21.6003 2.68308 21.0883C2.76841 20.5336 2.87508 19.915 3.00308 19.2323L6.20308 18.3363C6.07508 19.0616 5.96841 19.7443 5.88308 20.3843C5.84041 20.9816 5.81908 21.515 5.81908 21.9843C5.81908 22.795 5.94708 23.3923 6.20308 23.7763C6.45908 24.1603 6.86441 24.3523 7.41908 24.3523C8.05908 24.3523 8.59241 24.0323 9.01908 23.3923C9.44575 22.7096 9.68041 21.3656 9.72308 19.3603V17.4403L12.7951 16.2883V20.1923C12.7951 20.7896 12.9017 21.323 13.1151 21.7923C13.3711 22.219 13.8831 22.4323 14.6511 22.4323C15.4191 22.4323 15.9311 22.1976 16.1871 21.7283C16.4431 21.259 16.5711 20.6616 16.5711 19.9363C16.5711 19.211 16.4857 18.4856 16.3151 17.7603C16.1444 16.9923 15.9097 16.2456 15.6111 15.5203L18.4911 14.6243C18.9177 15.435 19.2591 16.3736 19.5151 17.4403C19.8137 18.4643 19.9631 19.403 19.9631 20.2563C19.9631 21.6643 19.5577 22.9443 18.7471 24.0963C17.9791 25.2056 16.7631 25.7603 15.0991 25.7603C13.7764 25.7603 12.6884 25.419 11.8351 24.7363C11.0244 24.011 10.6191 23.1576 10.6191 22.1763L12.0911 22.7523C12.0911 24.203 11.5791 25.419 10.5551 26.4003C9.57375 27.3816 8.33641 27.8723 6.84308 27.8723ZM45.1841 46.0163L45.7601 40.7683C48.1921 40.7683 49.8987 40.5336 50.8801 40.0643C51.8614 39.595 52.4161 38.763 52.5441 37.5683C52.7147 36.3736 52.7574 34.7096 52.6721 32.5763L51.4561 0.000286102H56.6401L57.9201 32.0003C58.0054 34.2616 57.9201 36.267 57.6641 38.0163C57.4507 39.7656 56.8961 41.2376 56.0001 42.4323C55.1467 43.627 53.8454 44.523 52.0961 45.1203C50.3894 45.7176 48.0854 46.0163 45.1841 46.0163ZM7.82013e-05 45.7603C7.82013e-05 44.7363 0.0854115 43.6483 0.256078 42.4963C0.469412 41.3016 0.768078 40.043 1.15208 38.7203C1.57874 37.355 2.09074 35.9256 2.68808 34.4323L7.29608 36.2243C6.86941 37.419 6.48541 38.5496 6.14408 39.6163C5.84541 40.683 5.61074 41.6856 5.44008 42.6243C5.31208 43.563 5.24808 44.459 5.24808 45.3123C5.24808 47.1043 5.63208 48.619 6.40008 49.8563C7.21075 51.1363 8.32008 52.1816 9.72808 52.9923C11.1361 53.803 12.7361 54.4003 14.5281 54.7843C16.3627 55.1683 18.3041 55.3603 20.3521 55.3603C22.8267 55.3603 25.1307 55.147 27.2641 54.7203C29.4401 54.2936 31.3387 53.675 32.9601 52.8643C34.6241 52.0963 35.9254 51.2003 36.8641 50.1763C37.8027 49.195 38.2721 48.1283 38.2721 46.9763C38.2721 46.4216 38.0587 45.9096 37.6321 45.4403C37.2054 44.971 36.5654 44.523 35.7121 44.0963C34.8587 43.6696 33.8347 43.2643 32.6401 42.8803C31.4454 42.4536 30.0801 42.027 28.5441 41.6003L29.7601 36.2883C31.9787 37.1416 33.9414 37.867 35.6481 38.4643C37.3547 39.019 38.8481 39.467 40.1281 39.8083C41.4081 40.1496 42.5174 40.4056 43.4561 40.5763C44.3947 40.7043 45.1841 40.7683 45.8241 40.7683C46.7201 40.7683 47.3601 41.0243 47.7441 41.5363C48.1707 42.0056 48.3841 42.5816 48.3841 43.2643C48.3841 43.947 48.0854 44.587 47.4881 45.1843C46.8907 45.739 46.1227 46.0163 45.1841 46.0163C44.9281 46.0163 44.6721 46.0163 44.4161 46.0163C44.1601 46.0163 43.8827 46.0163 43.5841 46.0163C43.3281 46.0163 43.0721 46.0163 42.8161 46.0163C42.9014 46.4003 42.9654 46.699 43.0081 46.9123C43.0507 47.1683 43.0721 47.4883 43.0721 47.8723C43.0721 49.451 42.5174 50.987 41.4081 52.4803C40.3414 53.9736 38.7627 55.3176 36.6721 56.5123C34.5814 57.7496 32.0427 58.731 29.0561 59.4563C26.1121 60.1816 22.7414 60.5443 18.9441 60.5443C15.5734 60.5443 12.4374 59.9896 9.53608 58.8803C6.67741 57.8136 4.37341 56.1923 2.62408 54.0163C0.874745 51.8403 7.82013e-05 49.0883 7.82013e-05 45.7603ZM65.5421 60.4163L64.3901 55.1683C66.9501 54.827 69.2967 54.3363 71.4301 53.6963C73.6061 53.099 75.4621 52.2243 76.9981 51.0723C78.5767 49.9203 79.7927 48.4056 80.6461 46.5283C81.4994 44.651 81.9261 42.3043 81.9261 39.4883C81.9261 36.587 81.3927 34.1763 80.3261 32.2563C79.2594 30.3363 77.8727 29.3763 76.1661 29.3763C75.2701 29.3763 74.4381 29.7176 73.6701 30.4003C72.9021 31.083 72.2621 32.0003 71.7501 33.1523C71.2807 34.3043 71.0461 35.563 71.0461 36.9283C71.0461 37.6963 71.2167 38.3363 71.5581 38.8483C71.8994 39.3176 72.3901 39.7016 73.0301 40.0003C73.7127 40.2563 74.5661 40.4483 75.5901 40.5763C76.6141 40.7043 77.8087 40.7683 79.1741 40.7683H92.6781C93.5741 40.7683 94.2141 41.0243 94.5981 41.5363C95.0247 42.0056 95.2381 42.5816 95.2381 43.2643C95.2381 43.947 94.9394 44.587 94.3421 45.1843C93.7447 45.739 92.9767 46.0163 92.0381 46.0163H76.7421C74.8221 46.0163 73.0301 45.739 71.3661 45.1843C69.7447 44.6296 68.4221 43.7763 67.3981 42.6243C66.4167 41.4296 65.9261 39.8723 65.9261 37.9523C65.9261 36.1603 66.2034 34.4536 66.7581 32.8323C67.3127 31.1683 68.0594 29.6963 68.9981 28.4163C69.9794 27.0936 71.1101 26.0483 72.3901 25.2803C73.7127 24.5123 75.1421 24.1283 76.6781 24.1283C78.6407 24.1283 80.3901 24.7043 81.9261 25.8563C83.4621 27.0083 84.6781 28.7576 85.5741 31.1043C86.4701 33.4083 86.9181 36.331 86.9181 39.8723C86.9181 43.8403 86.1074 47.2536 84.4861 50.1123C82.9074 53.0136 80.5181 55.3176 77.3181 57.0243C74.1607 58.731 70.2354 59.8616 65.5421 60.4163ZM109.932 16.4483L109.356 13.3763C112.257 13.163 114.604 12.715 116.396 12.0323C118.23 11.3496 119.553 10.539 120.364 9.60029C121.217 8.61895 121.644 7.63762 121.644 6.65629C121.644 5.88829 121.473 5.24829 121.132 4.73629C120.79 4.22429 120.278 3.96829 119.596 3.96829C118.956 3.96829 118.422 4.20295 117.996 4.67229C117.569 5.09895 117.356 5.63229 117.356 6.27229C117.356 7.08295 117.697 7.85095 118.38 8.57629C119.062 9.25895 119.916 9.77095 120.94 10.1123L118.956 12.1603C117.59 11.6483 116.417 10.9016 115.436 9.92029C114.497 8.93895 114.028 7.72295 114.028 6.27229C114.028 4.77895 114.54 3.47762 115.564 2.36829C116.63 1.25895 118.017 0.704285 119.724 0.704285C121.43 0.704285 122.71 1.30162 123.564 2.49629C124.46 3.64829 124.908 4.97095 124.908 6.46429C124.908 8.34162 124.289 10.0056 123.052 11.4563C121.814 12.907 120.065 14.059 117.804 14.9123C115.585 15.7656 112.961 16.2776 109.932 16.4483ZM92.0176 46.0163L92.6576 40.7683C94.0229 40.7683 95.1322 40.683 95.9856 40.5123C96.8389 40.299 97.5429 39.8083 98.0976 39.0403C98.6949 38.2296 99.2496 36.971 99.7616 35.2643C100.274 33.5576 100.871 31.1683 101.554 28.0963L106.354 29.4403C106.183 30.1656 105.991 30.9976 105.778 31.9363C105.564 32.8323 105.372 33.771 105.202 34.7523C105.031 35.691 104.946 36.5656 104.946 37.3763C104.946 38.443 105.351 39.275 106.162 39.8723C106.972 40.4696 108.444 40.7683 110.578 40.7683C111.858 40.7683 112.903 40.6616 113.714 40.4483C114.524 40.235 115.186 39.723 115.698 38.9123C116.252 38.1016 116.743 36.8003 117.17 35.0083C117.596 33.2163 118.044 30.763 118.514 27.6483L123.378 28.5443C123.25 29.3123 123.1 30.251 122.93 31.3603C122.759 32.4696 122.588 33.579 122.418 34.6883C122.29 35.755 122.226 36.651 122.226 37.3763C122.226 37.9736 122.354 38.5496 122.61 39.1043C122.908 39.6163 123.463 40.0216 124.274 40.3203C125.127 40.619 126.386 40.7683 128.05 40.7683C129.287 40.7683 130.354 40.619 131.25 40.3203C132.188 40.0216 132.892 39.467 133.362 38.6563C133.874 37.8456 134.13 36.715 134.13 35.2643C134.13 33.643 133.746 31.6163 132.978 29.1843C132.252 26.7096 131.42 24.2563 130.482 21.8243L135.666 19.9043C136.22 21.2696 136.732 22.827 137.202 24.5763C137.714 26.3256 138.14 28.0536 138.482 29.7603C138.823 31.467 138.994 32.9603 138.994 34.2403C138.994 36.203 138.738 37.931 138.226 39.4243C137.714 40.9176 136.988 42.155 136.05 43.1363C135.111 44.075 133.959 44.8003 132.594 45.3123C131.228 45.7816 129.692 46.0163 127.986 46.0163C125.98 46.0163 124.338 45.7816 123.058 45.3123C121.778 44.843 120.796 44.139 120.114 43.2003C119.431 42.219 118.983 40.9816 118.77 39.4883H120.946C120.135 41.323 119.282 42.7096 118.386 43.6483C117.49 44.587 116.38 45.227 115.058 45.5683C113.735 45.867 111.986 46.0163 109.81 46.0163C108.743 46.0163 107.591 45.8456 106.354 45.5043C105.159 45.163 104.114 44.5016 103.218 43.5203C102.322 42.4963 101.788 40.9816 101.618 38.9763L103.538 38.5923C102.812 40.7683 101.916 42.3896 100.85 43.4563C99.8256 44.4803 98.5882 45.163 97.1376 45.5043C95.6869 45.8456 93.9802 46.0163 92.0176 46.0163Z" fill="url(#paint0_linear_953_5843)"/>
<defs>
<linearGradient id="paint0_linear_953_5843" x1="70.1426" y1="-14.3037" x2="70.1426" y2="56.6963" gradientUnits="userSpaceOnUse">
<stop stop-color="#1F4F89"/>
<stop offset="1" stop-color="#081423"/>
</linearGradient>
</defs>
</svg>
