<svg width="23" height="23" viewBox="0 0 23 23" fill="none" xmlns="http://www.w3.org/2000/svg">
<path d="M21.1067 17.6781V10.7431C21.1067 10.0752 21.1061 9.74107 21.0244 9.43027C20.9521 9.15484 20.8333 8.89419 20.6726 8.65866C20.4912 8.39287 20.239 8.17247 19.7337 7.73264L13.7017 2.48264C12.7634 1.66603 12.2943 1.25794 11.7663 1.10263C11.3011 0.965789 10.8053 0.965789 10.3401 1.10263C9.81252 1.25782 9.34408 1.66553 8.40725 2.4809L2.37325 7.73264C1.8679 8.17247 1.61582 8.39287 1.43443 8.65866C1.27369 8.89419 1.154 9.15484 1.08165 9.43027C1 9.74107 1 10.0752 1 10.7431V17.6781C1 18.8429 1 19.4251 1.19132 19.8845C1.4464 20.4971 1.93536 20.9844 2.5512 21.2381C3.01308 21.4284 3.59861 21.4284 4.76968 21.4284C5.94074 21.4284 6.52692 21.4284 6.9888 21.2381C7.60464 20.9844 8.09347 20.4972 8.34855 19.8847C8.53987 19.4252 8.54 18.8428 8.54 17.678V16.428C8.54 15.0472 9.66526 13.928 11.0533 13.928C12.4414 13.928 13.5667 15.0472 13.5667 16.428V17.678C13.5667 18.8428 13.5667 19.4252 13.758 19.8847C14.0131 20.4972 14.502 20.9844 15.1179 21.2381C15.5797 21.4284 16.1653 21.4284 17.3363 21.4284C18.5074 21.4284 19.0936 21.4284 19.5555 21.2381C20.1713 20.9844 20.6601 20.4971 20.9152 19.8845C21.1065 19.4251 21.1067 18.8429 21.1067 17.6781Z" stroke="#F2F6FB" stroke-width="2" stroke-linecap="round" stroke-linejoin="round"/>
</svg>
