<svg width="25" height="28" viewBox="0 0 25 28" fill="none" xmlns="http://www.w3.org/2000/svg">
<path d="M20.352 10.6933C20.1602 10.4798 19.8492 10.4798 19.6575 10.6933C19.4657 10.9069 19.4657 11.2532 19.6575 11.4668C19.665 11.4752 19.6729 11.4838 19.6805 11.4917C19.7753 11.5905 19.8958 11.6394 20.0161 11.6394C20.1471 11.6394 20.278 11.5812 20.3746 11.4663C20.56 11.246 20.5499 10.8998 20.352 10.6933Z" fill="white"/>
<path d="M19.3544 9.79472C19.0733 9.58215 18.7847 9.39255 18.4967 9.23106C16.8671 8.31784 15.1403 8.13453 13.5028 8.70087C13.2438 8.7905 13.099 9.09691 13.1795 9.38534C13.2599 9.67381 13.5349 9.83492 13.7941 9.7454C15.1839 9.26464 16.6574 9.42466 18.0551 10.208C18.3017 10.3463 18.5602 10.5164 18.8028 10.6996C18.8873 10.7635 18.9832 10.7942 19.0781 10.7942C19.2354 10.7942 19.3899 10.7102 19.4849 10.5544C19.6372 10.3045 19.5787 9.96436 19.3544 9.79472Z" fill="white"/>
<path d="M23.8222 16.873C23.6208 16.4027 23.2875 15.6238 23.2815 15.3662C23.8557 13.7899 23.6462 12.0455 22.6898 10.4499C21.219 7.99591 18.2045 6.21475 15.5221 6.21475C14.1041 6.21475 12.7196 6.59132 11.4739 7.31019C11.1165 5.12942 9.39925 3.4707 7.33953 3.4707C5.02153 3.4707 3.13574 5.57091 3.13574 8.15243C3.13574 9.79485 3.88733 11.2882 5.14606 12.1471C5.50894 12.3947 5.59104 12.6087 5.62021 12.9594V14.8266V16.1595C5.62021 16.7702 6.06617 17.2669 6.61432 17.2669H6.78127C7.051 19.6609 8.09132 21.8345 9.74268 23.4339C9.75825 23.4879 9.80367 23.7412 9.60853 24.4968C9.45655 25.0855 9.22331 25.7394 9.01761 26.3163C8.87992 26.7024 8.76099 27.0358 8.68911 27.2879C8.64172 27.4541 8.66834 27.6355 8.7608 27.7764C8.85331 27.9171 9.00052 28.0004 9.15712 28.0004H16.1665C16.3968 28.0004 16.7131 27.8855 16.9122 27.3384C16.9989 27.1003 17.0554 26.8138 17.1154 26.5105C17.1737 26.2149 17.3105 25.5227 17.4466 25.4391C17.4467 25.4391 17.4546 25.4377 17.4738 25.4409C17.499 25.4454 17.5245 25.4476 17.55 25.4476C18.2841 25.4476 18.8839 25.4846 19.4131 25.5173C20.9652 25.6132 21.9021 25.6711 22.724 24.3527C23.1419 23.6821 23.0945 22.7042 23.0444 21.6688C23.0186 21.1351 22.9919 20.5843 23.0393 20.1264C23.1249 20.0324 23.3395 19.8684 23.4741 19.7655C23.937 19.4114 24.3741 19.0771 24.3741 18.5688C24.3743 18.1824 24.1645 17.6727 23.8222 16.873ZM5.6592 11.2143C4.69406 10.5559 4.11787 9.41127 4.11787 8.15237C4.11787 6.17389 5.56315 4.56439 7.33958 4.56439C9.11607 4.56439 10.5613 6.17395 10.5613 8.15237C10.5613 9.41127 9.98516 10.5559 9.01997 11.2144C8.56129 11.5275 8.28866 11.8927 8.15928 12.386L7.33944 12.3857L6.51999 12.386C6.3905 11.8927 6.11792 11.5275 5.6592 11.2143ZM8.07688 13.4799V14.2797H6.60238V13.4799H8.07688ZM6.61441 16.1731C6.60896 16.1731 6.60238 16.1656 6.60238 16.1595V15.3734H8.07688V16.1595C8.07688 16.1656 8.07025 16.1731 8.0647 16.1731H6.61441ZM22.9183 18.8638C22.4956 19.1871 22.1306 19.4662 22.0768 19.8886C22.0028 20.4681 22.0338 21.1084 22.0638 21.7276C22.101 22.4958 22.1432 23.3665 21.9173 23.7289C21.4287 24.5128 21.0061 24.5204 19.4675 24.4252C18.9599 24.3938 18.33 24.3549 17.5832 24.3537C17.2963 24.3161 16.8111 24.376 16.4872 25.0772C16.3227 25.4332 16.2343 25.8806 16.1563 26.2752C16.1172 26.4736 16.0621 26.7523 16.0106 26.9065H9.86402C9.88552 26.8461 9.90772 26.7838 9.9305 26.7199C10.6379 24.7362 11.0859 23.2813 10.404 22.6248C8.95854 21.2325 8.03676 19.3472 7.77243 17.2669H8.06475C8.613 17.2669 9.05901 16.7701 9.05901 16.1595V14.8266V12.9605C9.08813 12.6091 9.16998 12.3949 9.53315 12.147C10.6955 11.3539 11.4248 10.0197 11.5298 8.52682C12.735 7.7292 14.1097 7.30844 15.5221 7.30844C17.8618 7.30844 20.5922 8.92002 21.873 11.0571C22.422 11.973 22.9523 13.3979 22.3607 14.9843C22.168 15.501 22.4537 16.2175 22.9357 17.3436C23.0917 17.7082 23.3176 18.2359 23.3774 18.4824C23.276 18.5902 23.0579 18.757 22.9183 18.8638Z" fill="white"/>
<path d="M9.74803 7.37907C9.60303 6.78052 9.24255 6.30113 8.7055 5.99253C8.4645 5.85423 8.16836 5.95944 8.04398 6.22796C7.91969 6.49642 8.01427 6.82624 8.25532 6.96465C8.54852 7.13309 8.72667 7.3619 8.79983 7.66394C8.91567 8.14212 8.74047 8.65952 8.66357 8.79389C8.51778 9.04862 8.585 9.3867 8.81368 9.54906C8.89549 9.6072 8.98687 9.63481 9.07717 9.63481C9.23936 9.63481 9.39807 9.54551 9.49166 9.38188C9.70114 9.01608 9.94224 8.18068 9.74803 7.37907Z" fill="white"/>
<path d="M7.33967 0C7.06847 0 6.84863 0.244944 6.84863 0.546873V2.1059C6.84863 2.40783 7.06847 2.65277 7.33967 2.65277C7.61082 2.65277 7.83071 2.40783 7.83071 2.1059V0.546873C7.83071 0.244944 7.61082 0 7.33967 0Z" fill="white"/>
<path d="M1.8909 7.62695H0.49104C0.219838 7.62695 0 7.8719 0 8.17383C0 8.47586 0.219838 8.7207 0.49104 8.7207H1.89094C2.1621 8.7207 2.38194 8.47586 2.38194 8.17383C2.38194 7.8719 2.16205 7.62695 1.8909 7.62695Z" fill="white"/>
<path d="M5.03993 2.64454L4.3402 1.29497C4.20457 1.0334 3.9042 0.943876 3.66939 1.09481C3.43457 1.24586 3.35409 1.58027 3.48972 1.84184L4.18945 3.19141C4.28044 3.3669 4.44543 3.46496 4.61513 3.46496C4.69846 3.46496 4.78292 3.44133 4.86021 3.39157C5.09507 3.24052 5.17555 2.90611 5.03993 2.64454Z" fill="white"/>
<path d="M2.86557 4.66705L1.65364 3.88776C1.41882 3.73682 1.11845 3.82645 0.982878 4.08791C0.847252 4.34948 0.927734 4.68389 1.1626 4.83494L2.37453 5.61423C2.45182 5.664 2.53628 5.68763 2.61956 5.68763C2.78927 5.68763 2.9543 5.58957 3.04529 5.41408C3.18092 5.15262 3.10044 4.8181 2.86557 4.66705Z" fill="white"/>
<path d="M13.6957 4.08603C13.56 3.82446 13.2597 3.73483 13.0249 3.88588L11.813 4.66517C11.5781 4.81622 11.4976 5.15074 11.6333 5.4122C11.7242 5.58769 11.8892 5.68574 12.059 5.68574C12.1422 5.68574 12.2267 5.66212 12.304 5.61235L13.516 4.83306C13.7508 4.68201 13.8313 4.3476 13.6957 4.08603Z" fill="white"/>
<path d="M3.04554 10.9337C2.91001 10.6721 2.60979 10.5826 2.37488 10.7334L1.16265 11.5127C0.927785 11.6636 0.847255 11.9982 0.982831 12.2597C1.07377 12.4352 1.23886 12.5333 1.40856 12.5333C1.49184 12.5333 1.57625 12.5097 1.65359 12.46L2.86577 11.6807C3.10064 11.5298 3.18117 11.1952 3.04554 10.9337Z" fill="white"/>
<path d="M4.75921 13.1514C4.52445 13.0005 4.22408 13.0901 4.08845 13.3516L3.48968 14.5067C3.3541 14.7683 3.43458 15.1028 3.66945 15.2538C3.74679 15.3035 3.8312 15.3272 3.91448 15.3272C4.08418 15.3272 4.24927 15.2291 4.34021 15.0536L4.93898 13.8985C5.07461 13.6369 4.99413 13.3025 4.75921 13.1514Z" fill="white"/>
<path d="M11.0087 1.09486C10.7737 0.943815 10.4735 1.03345 10.3379 1.29502L9.63816 2.64459C9.50254 2.90616 9.58297 3.24063 9.81784 3.39162C9.89517 3.44138 9.97963 3.46501 10.0629 3.46501C10.2326 3.46501 10.3977 3.36695 10.4886 3.19146L11.1884 1.84189C11.324 1.58032 11.2435 1.24591 11.0087 1.09486Z" fill="white"/>
</svg>
