<svg width="20" height="20" viewBox="0 0 20 20" fill="none" xmlns="http://www.w3.org/2000/svg">
<path d="M3.47621 1.25019C3.75246 0.941548 3.72619 0.467401 3.41755 0.191156C3.1089 -0.0850888 2.63475 -0.0588232 2.35851 0.249822C1.15756 1.59163 0.321906 3.26948 0.0104551 5.12592C-0.058079 5.53442 0.217522 5.92114 0.626026 5.98967C1.03453 6.0582 1.42125 5.7826 1.48978 5.3741C1.75289 3.80581 2.45887 2.38686 3.47621 1.25019Z" fill="url(#paint0_linear_2144_698)"/>
<path d="M16.8928 0.249822C16.6166 -0.0588232 16.1425 -0.0850888 15.8338 0.191156C15.5252 0.467401 15.4989 0.941548 15.7751 1.25019C16.7925 2.38686 17.4985 3.80581 17.7616 5.3741C17.8301 5.7826 18.2168 6.0582 18.6253 5.98967C19.0338 5.92114 19.3094 5.53442 19.2409 5.12592C18.9295 3.26948 18.0938 1.59163 16.8928 0.249822Z" fill="url(#paint1_linear_2144_698)"/>
<path fill-rule="evenodd" clip-rule="evenodd" d="M9.62587 0C5.89801 0 2.87597 3.02197 2.87587 6.7498L2.87567 7.5C2.87567 9.62313 2.07465 11.5574 0.757119 13.0199C0.590618 13.2047 0.526588 13.46 0.586183 13.7016C0.645778 13.9431 0.821242 14.1393 1.0546 14.2255C2.59873 14.7955 4.21519 15.2159 5.88625 15.4692C5.87937 15.562 5.87587 15.6556 5.87587 15.75C5.87587 17.8211 7.5548 19.5 9.62587 19.5C11.6969 19.5 13.3759 17.8211 13.3759 15.75C13.3759 15.6556 13.3724 15.562 13.3655 15.4692C15.0364 15.2159 16.6527 14.7955 18.1967 14.2255C18.4301 14.1393 18.6056 13.9431 18.6652 13.7016C18.7247 13.46 18.6607 13.2047 18.4942 13.0199C17.1767 11.5574 16.3757 9.62313 16.3757 7.5V6.79919L16.3759 6.75C16.3759 3.02208 13.3538 0 9.62587 0ZM7.37587 15.75C7.37587 15.7162 7.37661 15.6826 7.37807 15.6493C8.11852 15.716 8.86821 15.75 9.62567 15.75C10.3833 15.75 11.1331 15.7159 11.8737 15.6492C11.8751 15.6826 11.8759 15.7162 11.8759 15.75C11.8759 16.9926 10.8685 18 9.62587 18C8.38322 18 7.37587 16.9926 7.37587 15.75Z" fill="url(#paint2_linear_2144_698)"/>
<defs>
<linearGradient id="paint0_linear_2144_698" x1="9.62568" y1="0" x2="9.62568" y2="19.5" gradientUnits="userSpaceOnUse">
<stop stop-color="#1F4F89"/>
<stop offset="1" stop-color="#081423"/>
</linearGradient>
<linearGradient id="paint1_linear_2144_698" x1="9.62568" y1="0" x2="9.62568" y2="19.5" gradientUnits="userSpaceOnUse">
<stop stop-color="#1F4F89"/>
<stop offset="1" stop-color="#081423"/>
</linearGradient>
<linearGradient id="paint2_linear_2144_698" x1="9.62568" y1="0" x2="9.62568" y2="19.5" gradientUnits="userSpaceOnUse">
<stop stop-color="#1F4F89"/>
<stop offset="1" stop-color="#081423"/>
</linearGradient>
</defs>
</svg>
