<svg width="17" height="21" viewBox="0 0 17 21" fill="none" xmlns="http://www.w3.org/2000/svg">
<path fill-rule="evenodd" clip-rule="evenodd" d="M8.25 0C5.35051 0 3 2.35051 3 5.25V8.25C1.34315 8.25 0 9.59315 0 11.25V18C0 19.6569 1.34315 21 3 21H13.5C15.1569 21 16.5 19.6569 16.5 18V11.25C16.5 9.59315 15.1569 8.25 13.5 8.25V5.25C13.5 2.35051 11.1495 0 8.25 0ZM12 8.25V5.25C12 3.17893 10.3211 1.5 8.25 1.5C6.17893 1.5 4.5 3.17893 4.5 5.25V8.25H12Z" fill="url(#paint0_linear_2144_985)"/>
<defs>
<linearGradient id="paint0_linear_2144_985" x1="8.25" y1="0" x2="8.25" y2="21" gradientUnits="userSpaceOnUse">
<stop stop-color="#1F4F89"/>
<stop offset="1" stop-color="#081423"/>
</linearGradient>
</defs>
</svg>
