<svg width="27" height="33" viewBox="0 0 27 33" fill="none" xmlns="http://www.w3.org/2000/svg">
<path d="M26.5167 14.4089C26.5021 14.3783 26.4836 14.3514 26.4682 14.3213C26.4269 14.2399 26.3825 14.1607 26.3361 14.0828C26.3108 14.0407 26.2872 13.9974 26.2604 13.9569C26.1912 13.8493 26.1172 13.7465 26.0389 13.6485C26.0393 13.6305 26.0393 13.6124 26.0393 13.5937C26.0403 12.8982 25.8837 12.2157 25.5864 11.6206C25.589 11.5531 25.5903 11.4862 25.5903 11.4187C25.5894 10.153 25.0685 8.97095 24.2008 8.26529C24.1948 8.26006 24.1917 8.2521 24.1856 8.24712C24.1652 8.23069 24.143 8.21999 24.1225 8.20381C24.0292 8.13212 23.933 8.06641 23.8341 8.00717C23.8121 7.99398 23.7912 7.9783 23.7688 7.96585C23.6514 7.90089 23.5308 7.84488 23.4075 7.79784C23.3717 7.7839 23.3358 7.77096 23.2992 7.75876C23.1769 7.71595 23.0526 7.68235 22.927 7.6582C22.9196 7.65671 22.9122 7.65422 22.9048 7.65273C22.8031 7.63455 22.6997 7.62261 22.5951 7.61663C21.8633 5.74035 20.0249 4.92069 18.4632 5.77396C17.9102 4.56152 16.8571 3.80782 15.7134 3.80633C15.563 3.80881 15.4128 3.82474 15.2644 3.85412V3.26246C16.0084 3.26246 16.6113 2.53216 16.6113 1.63135C16.6113 0.730301 16.0084 0 15.2644 0H11.6728C10.9289 0 10.3259 0.730301 10.3259 1.63135C10.3259 2.53216 10.9289 3.26246 11.6728 3.26246V4.94086C11.5242 4.91198 11.3742 4.89605 11.2238 4.89381C10.1374 4.89605 9.12855 5.57632 8.55475 6.69368C8.25593 6.58117 7.94499 6.52442 7.63219 6.52492C6.07193 6.52989 4.75026 7.91806 4.52543 9.78812C4.51372 9.78762 4.50139 9.78762 4.48947 9.78762C4.45247 9.78762 4.41651 9.7926 4.37972 9.79434C4.33821 9.79584 4.2971 9.79833 4.25559 9.80181C4.18756 9.80803 4.12057 9.81724 4.05378 9.82844C4.02459 9.83342 3.995 9.83392 3.96602 9.84014C3.95986 9.84139 3.95533 9.84636 3.94917 9.84786C2.44665 10.167 1.34961 11.746 1.34694 13.5937C1.34633 13.9725 1.39339 14.3494 1.48608 14.7111C0.379791 15.5417 -0.188662 17.1125 0.0563115 18.6608C0.30149 20.2087 1.30954 21.4134 2.59092 21.6895C2.60675 21.693 2.62237 21.6952 2.63819 21.6984C2.69039 21.7084 2.74198 21.7208 2.7952 21.7278C3.35379 22.7098 4.25867 23.3196 5.24206 23.3771C5.84216 24.9233 7.22199 25.7923 8.61168 25.4995C8.6536 25.5757 8.70169 25.6447 8.74773 25.7163C8.76684 25.7462 8.78431 25.7778 8.80424 25.8067C8.85665 25.8839 8.91276 25.9558 8.96968 26.027C8.98756 26.0496 9.00544 26.0725 9.02394 26.0947C9.08436 26.1666 9.14663 26.2356 9.21157 26.3013C9.22617 26.3162 9.24137 26.3302 9.25617 26.3448C9.45922 26.5427 9.68179 26.709 9.91896 26.8397C9.95369 26.8588 9.98739 26.8795 10.0227 26.8972C10.0799 26.9258 10.1382 26.9502 10.1968 26.9746C10.2525 26.998 10.3086 27.0199 10.3657 27.0398C10.4167 27.0572 10.4679 27.0736 10.5199 27.0878C10.592 27.1082 10.6654 27.1237 10.7394 27.1379C10.7809 27.1453 10.8222 27.155 10.8641 27.1608C10.9835 27.1779 11.1035 27.1869 11.2238 27.1876C11.3904 27.1867 11.5565 27.17 11.7209 27.1376C11.7295 27.1359 11.7386 27.1366 11.7472 27.1349C11.7552 27.1334 11.7612 27.1272 11.7692 27.1249C12.2217 27.0298 12.6513 26.8148 13.027 26.4949C13.0703 26.5442 13.1104 26.5928 13.1548 26.6428C14.319 27.7666 15.0564 29.4151 15.1978 31.2103C15.2835 32.0227 15.8563 32.6298 16.5324 32.6251H18.4628C19.0483 32.6256 19.567 32.1681 19.7467 31.493V31.4925C19.8971 30.9355 19.9949 30.3598 20.0381 29.7761C20.5387 29.8624 21.0439 29.9057 21.5498 29.9062C22.6025 29.8808 23.5627 29.1729 24.0649 28.0521C24.6831 26.7272 24.6408 25.0311 23.9657 23.3062C24.8292 23.0978 25.5808 22.4594 26.0362 21.5466C26.4916 20.6339 26.6092 19.5312 26.3601 18.5084C27.065 17.3059 27.1292 15.7174 26.5247 14.4375C26.5208 14.428 26.521 14.4178 26.5167 14.4089ZM11.2238 1.63135C11.224 1.33092 11.425 1.08773 11.6728 1.08749H15.2644C15.5124 1.08749 15.7134 1.33092 15.7134 1.63135C15.7134 1.93154 15.5124 2.17497 15.2644 2.17497H11.6728C11.425 2.17472 11.224 1.93154 11.2238 1.63135ZM14.3665 3.26246V5.91334C14.3665 6.4134 14.4804 6.90376 14.6953 7.33064L16.196 10.3258C16.0945 10.3365 15.9931 10.3056 15.9081 10.2379L15.5677 9.96335C15.1123 9.59472 14.5186 9.59472 14.0632 9.96335L13.7224 10.2379C13.5689 10.3631 13.3679 10.3631 13.2144 10.2379L12.874 9.96335C12.4186 9.59472 11.8249 9.59472 11.3695 9.96335L11.0287 10.2379C10.9412 10.3076 10.8362 10.338 10.7322 10.3238L12.2419 7.33014C12.4571 6.90351 12.5707 6.41316 12.5707 5.91334V3.26246H14.3665ZM10.2457 11.2885C10.6658 11.5056 11.1479 11.4506 11.5273 11.1427L11.8674 10.8681C12.0214 10.7439 12.222 10.7439 12.3761 10.8681L12.7158 11.1427C13.171 11.5123 13.7656 11.5123 14.221 11.1427L14.5611 10.8681C14.7153 10.7439 14.9158 10.7439 15.0698 10.8681L15.4095 11.1427C15.7856 11.4476 16.2628 11.5039 16.6804 11.2928L18.3724 14.6697L8.52618 14.6984L10.2457 11.2885ZM19.1523 29.5729C19.1192 30.1118 19.0321 30.6438 18.8925 31.157C18.8325 31.3833 18.6591 31.5371 18.4628 31.5376H16.5322C16.3105 31.5426 16.1204 31.3464 16.0895 31.0803C15.9274 29.0298 15.0909 27.1446 13.7684 25.8495L13.6819 25.7512C13.7051 25.7161 13.7241 25.677 13.7463 25.6409C13.7923 25.5655 13.8389 25.4911 13.8802 25.4112C13.9331 25.3099 13.9791 25.2041 14.0239 25.0971C14.0385 25.062 14.0572 25.0301 14.071 24.9938C14.1848 25.0776 14.3028 25.1528 14.4244 25.2185C14.4637 25.2402 14.5044 25.2569 14.5445 25.2763C14.6281 25.3171 14.7126 25.3552 14.7991 25.387C14.847 25.405 14.8953 25.4199 14.9438 25.4346C15.0266 25.46 15.11 25.4811 15.1943 25.4983C15.2436 25.5083 15.2932 25.518 15.3431 25.5252C15.3721 25.5294 15.4002 25.5376 15.4292 25.5409C15.4405 25.5951 15.459 25.6437 15.4715 25.6972C15.5036 25.8343 15.54 25.9657 15.5792 26.0944C15.6099 26.195 15.6411 26.2948 15.6762 26.3916C15.7278 26.5333 15.7845 26.6674 15.8441 26.7981C15.8791 26.8743 15.9128 26.9507 15.9508 27.0241C16.024 27.1638 16.1029 27.2989 16.1876 27.4288C16.2237 27.4853 16.2576 27.5438 16.2961 27.5986C16.3984 27.7427 16.5075 27.8796 16.6228 28.0086C16.6522 28.0419 16.6781 28.0782 16.7083 28.1109C16.8549 28.2672 17.0094 28.4118 17.1712 28.544C17.2244 28.5875 17.2834 28.6258 17.3386 28.6677C17.4517 28.7523 17.5653 28.8342 17.6825 28.9079C17.762 28.9581 17.8448 29.0049 17.9281 29.0517C18.0374 29.1125 18.1473 29.169 18.2583 29.2212C18.343 29.2616 18.4258 29.3031 18.5138 29.34C18.6983 29.4171 18.8835 29.4838 19.0678 29.5418C19.097 29.5513 19.1227 29.5637 19.1523 29.5729ZM23.2832 27.5167C22.9404 28.2963 22.2786 28.7931 21.5498 28.8188C20.9407 28.822 20.333 28.7565 19.7339 28.6229C19.7222 28.6186 19.7125 28.6099 19.7004 28.6069C18.8416 28.4372 18.0329 28.0028 17.3526 27.3452C17.3352 27.327 17.3171 27.3101 17.3 27.2914C17.1681 27.1496 17.046 26.9952 16.9344 26.8297C16.92 26.8078 16.9075 26.7832 16.8935 26.7608C16.8057 26.6229 16.7258 26.4778 16.6543 26.3264C16.6272 26.2702 16.6023 26.2119 16.5774 26.1532C16.5213 26.019 16.4714 25.8814 16.428 25.7405C16.4091 25.6798 16.3883 25.621 16.3713 25.5575C16.3643 25.5317 16.361 25.503 16.3544 25.4766C16.397 25.4657 16.4379 25.45 16.4796 25.4373C16.4977 25.4318 16.5156 25.4264 16.5336 25.4204C17.3 25.171 17.9591 24.5771 18.3767 23.7597C18.3862 23.7676 18.3968 23.7734 18.4065 23.7813C18.5224 23.8794 18.6437 23.9678 18.7694 24.0459C18.7772 24.0509 18.7844 24.0576 18.7923 24.0623C18.8048 24.0703 18.8186 24.0745 18.8313 24.082C18.9628 24.1607 19.0987 24.2281 19.238 24.2836L19.2413 24.2854L19.2429 24.2859C19.3843 24.3399 19.529 24.3817 19.6753 24.4108C19.6885 24.4135 19.701 24.4195 19.7144 24.4223C19.7294 24.425 19.745 24.424 19.76 24.4265C19.9068 24.4534 20.0547 24.4673 20.2029 24.4688C20.3073 24.4688 20.4105 24.4616 20.5124 24.4496C20.5192 24.4486 20.5262 24.4491 20.5332 24.4481C20.5605 24.4449 20.587 24.4374 20.6143 24.433C20.6818 24.422 20.7485 24.4108 20.8147 24.3949C20.854 24.3857 20.8924 24.374 20.9315 24.363C20.9921 24.3456 21.0525 24.3269 21.1119 24.3053C21.1493 24.2916 21.1865 24.2771 21.2235 24.2617C21.2864 24.2361 21.3476 24.2075 21.4085 24.1771C21.4389 24.1617 21.4695 24.147 21.4995 24.1305C21.5784 24.0875 21.6553 24.0404 21.7307 23.9899C21.7406 23.9832 21.7508 23.9775 21.7607 23.9707C22.0414 23.7768 22.2957 23.5314 22.5143 23.2432C22.5285 23.2479 22.5433 23.2489 22.5577 23.2536C22.688 23.2959 22.8201 23.3276 22.9539 23.3487C22.9619 23.35 22.9697 23.3532 22.978 23.3544C23.6876 24.9027 23.8006 26.4081 23.2834 27.5167H23.2832ZM25.439 18.5958C25.5374 18.9087 25.5886 19.2402 25.5903 19.575C25.5888 21.0759 24.5847 22.2921 23.3456 22.2938C23.249 22.2906 23.1527 22.2799 23.0573 22.2612C23.1738 21.9541 23.256 21.6295 23.3021 21.2962C23.3432 21 23.1779 20.7197 22.9334 20.6702C22.6888 20.6207 22.4574 20.8205 22.4165 21.1167C22.354 21.5618 22.2005 21.9807 21.9697 22.3352C21.9372 22.3852 21.9037 22.4335 21.869 22.4803C21.8248 22.54 21.7776 22.5955 21.7293 22.65C21.6861 22.6991 21.6425 22.7464 21.5967 22.7907C21.5289 22.8559 21.4582 22.9166 21.3846 22.9721C21.3517 22.9968 21.318 23.0197 21.2841 23.0426C21.1988 23.0998 21.1105 23.1503 21.0196 23.1939C21.0063 23.2001 20.9931 23.2088 20.9795 23.2148C20.871 23.2616 20.7596 23.2984 20.6466 23.3248C20.6187 23.3315 20.5905 23.3373 20.5623 23.3427C20.4436 23.3671 20.3233 23.3801 20.2029 23.3813C20.0488 23.3813 19.8952 23.3619 19.7444 23.3233L19.7362 23.3203C19.5919 23.283 19.4509 23.2285 19.3155 23.1578C19.2801 23.1394 19.2491 23.112 19.2148 23.0916C19.1161 23.0353 19.021 22.9706 18.9302 22.8977C18.8784 22.8541 18.8334 22.8009 18.7849 22.7526C18.7179 22.6896 18.6541 22.6224 18.5937 22.5507C18.2861 22.1669 18.0793 21.6813 17.9992 21.1551C19.5249 20.8624 20.6491 19.2708 20.652 17.4C20.652 17.0998 20.4508 16.8564 20.2029 16.8564C19.9548 16.8564 19.7539 17.0998 19.7539 17.4C19.7539 18.5271 19.1794 19.5374 18.3101 19.9396C17.4408 20.3416 16.4566 20.0524 15.8361 19.2123C15.6701 18.9921 15.3885 18.9746 15.205 19.1738C15.0215 19.3726 15.0046 19.7136 15.1672 19.9377C15.6674 20.612 16.3495 21.0483 17.0914 21.1683C17.1638 21.8229 17.3763 22.4429 17.7078 22.9671C17.4387 23.6163 16.9671 24.1089 16.3974 24.3361C16.3733 24.3453 16.3481 24.3508 16.3236 24.3593C16.2443 24.3879 16.1639 24.4111 16.0825 24.4287C16.0332 24.4387 15.982 24.4422 15.9317 24.4481C15.8594 24.4593 15.7864 24.4663 15.7134 24.4688C15.1343 24.4686 14.5776 24.197 14.16 23.7111C14.0432 23.576 13.8755 23.5274 13.7208 23.5839C13.5662 23.6402 13.4485 23.7928 13.4125 23.9834C13.385 24.1263 13.348 24.2662 13.3021 24.4018C13.2832 24.4581 13.259 24.5111 13.237 24.5659C13.208 24.6386 13.179 24.7112 13.1451 24.7799C13.1114 24.8486 13.073 24.9121 13.0346 24.9763C13.0062 25.0236 12.978 25.0712 12.9474 25.116C12.8993 25.1859 12.8475 25.2524 12.7933 25.3166C12.2774 25.9463 11.5355 26.2216 10.8168 26.0501C10.786 26.0434 10.7554 26.0354 10.725 26.027C10.4597 25.9548 10.2075 25.8244 9.98081 25.6424C9.97177 25.6352 9.96355 25.6275 9.95492 25.6203C9.84353 25.5279 9.73934 25.4236 9.64316 25.3086L9.63493 25.2994C9.53649 25.1794 9.4475 25.0488 9.36879 24.9089C9.36181 24.8964 9.35626 24.8827 9.34947 24.87C8.96331 24.1619 8.8733 23.2755 9.10656 22.4755C9.18424 22.1943 9.06155 21.8896 8.83076 21.7905C8.60017 21.6915 8.34636 21.8346 8.26045 22.1121C8.03953 22.8678 8.02226 23.689 8.21113 24.4574C8.16797 24.4606 8.12399 24.4688 8.08124 24.4688C7.12786 24.4666 6.27909 23.7365 5.96362 22.647C5.89601 22.4116 5.70488 22.2625 5.50019 22.2854C5.46381 22.2891 5.42743 22.2938 5.38736 22.2938C4.84912 22.2911 4.32937 22.0546 3.92286 21.627C4.7406 21.3726 5.44018 20.7317 5.86436 19.8476C5.98047 19.5887 5.90526 19.2651 5.69481 19.1175C5.48457 18.9701 5.21534 19.052 5.08772 19.3027C4.68532 20.1428 3.94465 20.6607 3.14273 20.6625C3.07614 20.6625 3.0112 20.6493 2.94544 20.6423C2.86241 20.6349 2.77979 20.6219 2.69779 20.6035C2.63059 20.5873 2.56441 20.5647 2.49844 20.5408C1.54711 20.2032 0.894605 19.1446 0.897894 17.9439C0.899949 16.8703 1.42154 15.8984 2.23066 15.4603C2.34061 15.4008 2.42589 15.2903 2.46802 15.1536C2.50995 15.0172 2.50481 14.8659 2.45384 14.734C2.31553 14.3773 2.24422 13.9877 2.24484 13.5937C2.2471 12.1137 3.22637 10.9075 4.44816 10.8801C4.48042 10.8796 4.51289 10.8796 4.54516 10.8806C4.61997 10.8831 4.69971 10.8923 4.7813 10.9045C5.2285 10.9749 5.64795 11.2059 5.98582 11.5673C6.17099 11.7645 6.45234 11.7441 6.61675 11.5218C6.78095 11.2995 6.76677 10.9582 6.58489 10.7571C6.24744 10.3947 5.84936 10.1246 5.41798 9.96534C5.56698 8.62123 6.51235 7.61663 7.63219 7.6124C7.95732 7.61215 8.27874 7.69852 8.57304 7.86579C8.68196 7.92827 8.80712 7.93449 8.91995 7.88322C9.03278 7.83219 9.12403 7.72864 9.17335 7.59548C9.6037 6.4373 10.6368 5.79113 11.6658 6.03656C11.6652 6.04651 11.6648 6.05647 11.6642 6.06642C11.6558 6.17744 11.6379 6.28696 11.611 6.39374C11.6066 6.41091 11.6009 6.42759 11.596 6.44477C11.5655 6.55603 11.5251 6.66281 11.4755 6.76337L9.71056 10.2633L9.45449 10.7706L7.75756 14.1353C7.71728 14.2167 7.68604 14.3043 7.66467 14.3954C7.62973 14.552 7.62541 14.716 7.65254 14.8748C7.65603 14.8972 7.6546 14.9204 7.65932 14.9425C7.66528 14.9707 7.67885 14.9968 7.68686 15.0249C7.70228 15.0869 7.72262 15.1471 7.74708 15.2046C7.78756 15.291 7.8375 15.3699 7.89546 15.4399L7.90162 15.4456C8.07755 15.6532 8.31348 15.7692 8.55907 15.7687H18.3781C18.6237 15.7692 18.8597 15.6532 19.0356 15.4456L19.0417 15.4399C19.0999 15.3702 19.1498 15.291 19.1901 15.2049C19.2115 15.1536 19.2292 15.1003 19.2434 15.0456C19.2563 15.012 19.2678 14.9776 19.2779 14.9423C19.2789 14.9381 19.2785 14.9336 19.2793 14.9291C19.3342 14.6593 19.2984 14.374 19.1796 14.1361L19.1776 14.1313L17.2268 10.2633L17.2262 10.2625L15.4619 6.76437C15.3328 6.50799 15.2646 6.21353 15.2644 5.91334V4.95156C16.3637 4.68074 17.4593 5.43395 17.8311 6.71558C17.8769 6.87463 17.9811 6.99884 18.1132 7.05186C18.2452 7.10488 18.3901 7.08073 18.5054 6.98639C19.0013 6.58192 19.6104 6.43506 20.1963 6.57893C20.7822 6.7228 21.2962 7.1452 21.6228 7.75179C21.0377 7.9432 20.5108 8.33548 20.1053 8.88109C19.9427 9.10511 19.9596 9.44612 20.1431 9.64525C20.3266 9.84412 20.6084 9.82695 20.7742 9.60642C21.2921 8.89329 22.0836 8.56722 22.853 8.74967C22.8902 8.75788 22.9268 8.76908 22.9634 8.77954C23.0639 8.80816 23.1623 8.84525 23.2583 8.89055C23.2885 8.90474 23.3191 8.91694 23.3487 8.93262C24.1638 9.36547 24.6907 10.3407 24.6924 11.4187C24.6924 11.5153 24.6889 11.6121 24.6811 11.7082C24.6708 11.8344 24.6973 11.9611 24.7561 12.0661C24.8862 12.3001 24.9854 12.5575 25.0498 12.8288C24.6543 12.6175 24.2269 12.5077 23.7945 12.5062C23.5466 12.5062 23.3456 12.7496 23.3456 13.0501C23.3456 13.3503 23.5466 13.5937 23.7945 13.5937C24.374 13.5957 24.9308 13.8682 25.3484 14.3551C25.3665 14.3763 25.3847 14.3974 25.4022 14.4196C25.4476 14.4758 25.4902 14.5358 25.5319 14.5973C25.5498 14.6244 25.5693 14.6506 25.5866 14.6782C26.2158 15.6868 26.1863 17.0884 25.5152 18.0566C25.4115 18.2067 25.3823 18.4126 25.439 18.5958Z" fill="#FFFAED"/>
</svg>
