<svg width="20" height="21" viewBox="0 0 20 21" fill="none" xmlns="http://www.w3.org/2000/svg">
<path d="M0.504326 8.64606C0.621124 8.53525 0.62545 8.51598 0.655731 7.81259C0.711967 6.45882 0.962866 5.34111 1.47764 4.13668C1.7718 3.44775 2.11354 2.89853 2.59371 2.33967C3.195 1.63629 3.57568 1.33759 4.30242 0.985897C6.01978 0.162068 7.96209 0.398136 9.38962 1.60738C9.72703 1.89163 10.2288 2.49384 10.4581 2.88408C10.921 3.68382 11.3665 4.94124 11.5482 5.96259C11.877 7.80296 11.7429 9.67223 11.1848 10.9489C10.8864 11.6379 10.5576 12.11 9.38962 13.5264C8.25192 14.9091 7.78905 15.7088 7.56843 16.6772C7.2613 18.0117 6.98012 18.6765 6.47399 19.2354C5.8727 19.9051 5.17624 20.2134 4.17264 20.2567C3.30747 20.2953 2.64562 20.1122 1.9059 19.6256C1.3868 19.2884 1.08832 18.8981 0.876349 18.2959C0.733596 17.8816 0.690337 17.6455 0.651405 17.0722C0.621124 16.5808 0.608146 16.5327 0.5 16.4315" stroke="white" stroke-linecap="round"/>
<path d="M2.86563 10.3945C2.75748 10.2837 2.54984 9.5707 2.43737 8.92513C2.33788 8.33255 2.33788 7.09922 2.4417 6.56445C2.844 4.50247 4.0163 3.1776 5.76827 2.80182C6.15327 2.71992 6.93193 2.74882 7.29097 2.85963C7.86631 3.03307 8.3162 3.32213 8.80069 3.83763C9.54041 4.63255 9.96867 5.66836 10.0855 6.96914C10.1504 7.70143 10.1114 7.90859 9.88215 8.01458" stroke="white" stroke-linecap="round"/>
<path d="M2.12305 13.383C2.15118 13.9876 2.22854 14.2479 2.48526 14.5754C2.75955 14.9281 3.01275 15.0583 3.43122 15.0625C3.71958 15.0625 3.76881 15.0499 3.98333 14.9239C4.26817 14.7602 4.53895 14.4201 4.62687 14.1304C4.66555 14.0002 4.69368 13.7021 4.71126 13.2864C4.7394 12.665 4.74291 12.6356 4.86951 12.3375C5.10161 11.7748 5.31612 11.5985 6.27615 11.1996C6.76144 10.9981 7.03573 10.7755 7.22915 10.4438C7.45773 10.0407 7.51048 9.793 7.51048 9.07921C7.51048 8.52496 7.49993 8.44099 7.41553 8.16387C7.22563 7.53405 6.89507 7.03859 6.4344 6.68589C5.86822 6.25341 5.43217 6.09806 4.71478 6.06866C4.22949 6.04767 4.00091 6.07706 3.62815 6.20722" stroke="white" stroke-linecap="round"/>
<path d="M15.5278 3.70739C15.2467 4.03017 14.8746 4.60348 14.68 5.02744C13.6893 7.14241 13.9878 9.76807 15.4154 11.5699C15.6706 11.8927 15.809 11.9649 16.0037 11.883C16.1508 11.8156 16.22 11.7 16.2243 11.5024C16.2243 11.3627 16.1767 11.2712 15.9604 10.9966C15.424 10.3125 15.0823 9.54163 14.9179 8.65999C14.8054 8.05296 14.827 7.09905 14.9655 6.49202C15.1385 5.75491 15.5192 4.96963 16.0037 4.35778C16.1897 4.12171 16.2243 4.04462 16.2243 3.89046C16.2243 3.66403 16.0729 3.50504 15.8523 3.50504C15.7398 3.50504 15.6706 3.5484 15.5278 3.70739Z" fill="white"/>
<path d="M17.215 4.83138C16.9122 5.01445 16.3542 6.06471 16.2071 6.73919C15.9259 8.01588 16.246 9.4612 17.016 10.3669C17.1977 10.5837 17.2712 10.6367 17.3794 10.6367C17.5741 10.6367 17.6476 10.5934 17.7168 10.4392C17.8206 10.2224 17.7947 10.1405 17.5438 9.7888C16.8733 8.8638 16.6786 7.775 16.9901 6.71992C17.1069 6.32968 17.4183 5.74192 17.6216 5.53476C17.8336 5.32278 17.812 4.92773 17.5827 4.8121C17.4443 4.74466 17.3534 4.74947 17.215 4.83138Z" fill="white"/>
<path d="M18.7024 6.13086C18.5597 6.24166 18.3131 6.68489 18.2136 7.02695C18.1314 7.28711 18.1228 7.41237 18.1358 7.81706C18.1531 8.22174 18.179 8.347 18.2872 8.6168C18.4602 9.03112 18.7543 9.38281 18.936 9.38281C19.0096 9.38281 19.1177 9.33945 19.1826 9.28164C19.3513 9.13229 19.3383 8.86732 19.148 8.59271C18.9231 8.26029 18.8452 7.99531 18.8711 7.60989C18.8928 7.26302 18.975 7.0414 19.1696 6.79088C19.3254 6.59336 19.3383 6.32357 19.2086 6.16458C19.1004 6.03932 18.8452 6.02005 18.7024 6.13086Z" fill="white"/>
</svg>
