<svg width="24" height="23" viewBox="0 0 24 23" fill="none" xmlns="http://www.w3.org/2000/svg">
<path fill-rule="evenodd" clip-rule="evenodd" d="M-2.94546 12.6025C-2.94546 13.0227 -2.88263 13.443 -2.73355 13.9424L-2.69058 14.084C-2.05852 15.9697 -0.318154 17.2363 1.63852 17.2363H19.3817L18.2811 20.7764C17.9693 21.9801 16.8567 22.7978 15.6395 22.7979C15.402 22.7977 15.1653 22.7665 14.9354 22.7061L-3.965 17.5889C-5.42277 17.1822 -6.29151 15.6562 -5.91031 14.1846L-2.94546 4.17773V12.6025ZM20.2772 -4.38867C21.9615 -4.38867 23.3328 -3.00164 23.3329 -1.29883V12.2939C23.3328 13.9968 21.9615 15.3838 20.2772 15.3838H1.94418C0.260123 15.3838 -1.11146 13.9968 -1.11148 12.2939V-1.29883C-1.11144 -3.00164 0.260136 -4.38867 1.94418 -4.38867H20.2772ZM1.94418 -1.91699C1.60696 -1.91699 1.33287 -1.63999 1.33286 -1.29883V10.3652L4.7059 6.95605C5.54072 6.11094 6.90125 6.11094 7.73715 6.95605L9.21665 8.44727L13.7557 2.93848C14.1614 2.44661 14.7555 2.1628 15.3885 2.15918C16.0253 2.17383 16.6186 2.43337 17.0282 2.91895L20.8885 7.47363V-1.29883C20.8885 -1.63997 20.6147 -1.91699 20.2772 -1.91699H1.94418ZM4.99985 -0.681641C6.34788 -0.681489 7.44407 0.427218 7.44418 1.79004C7.44418 3.15295 6.34794 4.26157 4.99985 4.26172C3.65168 4.26172 2.55454 3.15299 2.55454 1.79004C2.55465 0.427183 3.65169 -0.681641 4.99985 -0.681641Z" fill="#A3A3A3"/>
</svg>
